<?xml version="1.0" encoding="UTF-8" standalone="no"?>
<svg
   xmlns:dc="http://purl.org/dc/elements/1.1/"
   xmlns:cc="http://creativecommons.org/ns#"
   xmlns:rdf="http://www.w3.org/1999/02/22-rdf-syntax-ns#"
   xmlns:svg="http://www.w3.org/2000/svg"
   xmlns="http://www.w3.org/2000/svg"
   xmlns:sodipodi="http://sodipodi.sourceforge.net/DTD/sodipodi-0.dtd"
   xmlns:inkscape="http://www.inkscape.org/namespaces/inkscape"
   version="1.0"
   width="445.000000pt"
   height="443.000000pt"
   viewBox="0 0 445.000000 443.000000"
   preserveAspectRatio="xMidYMid meet"
   id="svg2"
   inkscape:version="0.48.3.1 r9886"
   sodipodi:docname="unity-lens-vibe.svg">
  <defs
     id="defs14">
    <filter
       id="filter2991"
       inkscape:label="Invert"
       x="0"
       y="0"
       width="1"
       height="1"
       inkscape:menu="Color"
       inkscape:menu-tooltip="Invert colors"
       color-interpolation-filters="sRGB">
      <feColorMatrix
         id="feColorMatrix2993"
         type="saturate"
         values="1"
         result="fbSourceGraphic" />
      <feColorMatrix
         id="feColorMatrix2995"
         in="fbSourceGraphic"
         values="-1 0 0 0 1 0 -1 0 0 1 0 0 -1 0 1 0 0 0 1 0 " />
    </filter>
  </defs>
  <sodipodi:namedview
     pagecolor="#ffffff"
     bordercolor="#666666"
     borderopacity="1"
     objecttolerance="10"
     gridtolerance="10"
     guidetolerance="10"
     inkscape:pageopacity="0"
     inkscape:pageshadow="2"
     inkscape:window-width="1920"
     inkscape:window-height="1056"
     id="namedview12"
     showgrid="false"
     inkscape:zoom="0.4261851"
     inkscape:cx="294.54979"
     inkscape:cy="276.875"
     inkscape:window-x="0"
     inkscape:window-y="24"
     inkscape:window-maximized="1"
     inkscape:current-layer="svg2" />
  <metadata
     id="metadata4">
Created by potrace 1.11, written by Peter Selinger 2001-2013
<rdf:RDF>
  <cc:Work
     rdf:about="">
    <dc:format>image/svg+xml</dc:format>
    <dc:type
       rdf:resource="http://purl.org/dc/dcmitype/StillImage" />
  </cc:Work>
</rdf:RDF>
</metadata>
  <g
     transform="translate(0.000000,443.000000) scale(0.100000,-0.100000)"
     fill="#000000"
     stroke="none"
     id="g6"
     style="filter:url(#filter2991)">
    <path
       d="M803 4415 c-381 -70 -681 -355 -781 -743 -16 -62 -17 -171 -17 -1457 0 -1286 1 -1395 17 -1457 96 -371 375 -649 738 -735 70 -17 168 -18 1465 -18 1297 0 1395 1 1465 18 363 86 642 364 738 735 16 62 17 171 17 1457 0 1286 -1 1395 -17 1457 -94 364 -352 627 -717 731 l-76 22 -1380 2 c-1101 1 -1394 -1 -1452 -12z m1617 -506 c290 -36 568 -142 800 -307 121 -86 316 -280 403 -402 77 -108 193 -336 231 -455 155 -480 90 -1011 -175 -1430 -48 -76 -87 -100 -153 -93 -50 6 -87 32 -112 80 -21 40 -17 79 11 129 170 303 228 500 228 779 1 378 -133 712 -392 982 -209 218 -456 356 -754 420 -146 31 -418 31 -564 0 -297 -64 -546 -203 -753 -419 -230 -240 -359 -524 -390 -862 -26 -279 47 -595 192 -834 58 -95 71 -154 44 -206 -26 -50 -71 -73 -134 -68 -66 5 -98 35 -166 153 -486 846 -153 1925 729 2367 287 143 643 205 955 166z m10 -1112 c194 -69 346 -236 396 -437 23 -90 15 -261 -16 -349 -29 -82 -108 -198 -173 -256 -64 -56 -189 -119 -279 -142 -38 -9 -68 -21 -68 -27 0 -6 24 -146 54 -310 l54 -300 -80 -90 -81 -91 38 -3 c54 -5 242 25 343 54 160 46 338 131 432 205 l25 19 -40 36 c-104 93 -299 202 -432 241 l-63 18 0 118 c0 89 3 117 13 117 7 0 58 -14 112 -31 255 -79 502 -240 671 -437 112 -130 110 -115 29 -189 -199 -183 -514 -342 -785 -397 -453 -92 -929 0 -1302 251 -95 64 -258 198 -258 213 0 16 117 155 183 217 173 162 358 271 580 342 53 17 104 31 112 31 12 0 15 -20 15 -118 l0 -117 -67 -19 c-99 -29 -266 -117 -367 -193 -50 -38 -91 -73 -93 -78 -3 -11 130 -97 222 -143 144 -71 342 -124 520 -138 104 -8 105 -19 -6 106 l-67 75 54 300 c30 165 54 305 54 312 0 6 -26 17 -57 23 -173 35 -334 153 -417 304 -105 188 -103 428 3 611 81 140 227 249 391 291 89 22 258 13 350 -19z"
       id="path8" />
    <path
       d="M2108 2581 c-31 -10 -72 -28 -91 -40 -52 -32 -116 -106 -145 -169 -24 -50 -27 -70 -27 -157 0 -87 3 -107 26 -156 49 -103 140 -181 248 -213 182 -53 378 38 460 213 23 49 26 69 26 156 0 93 -2 105 -33 167 -41 84 -120 158 -200 189 -79 30 -190 35 -264 10z"
       id="path10" />
  </g>
</svg>
